<?xml version="1.0" standalone="no"?>
<!DOCTYPE svg PUBLIC "-//W3C//DTD SVG 20010904//EN"
 "http://www.w3.org/TR/2001/REC-SVG-20010904/DTD/svg10.dtd">
<svg version="1.0" xmlns="http://www.w3.org/2000/svg"
 width="1008.000000pt" height="1008.000000pt" viewBox="0 0 1008.000000 1008.000000"
 preserveAspectRatio="xMidYMid meet">
<metadata>
Created by potrace 1.14, written by Peter Selinger 2001-2017
</metadata>
<g transform="translate(0.000000,1008.000000) scale(0.100000,-0.100000)"
fill="#000000" stroke="none">
<path d="M5010 8862 c-88 -24 -178 -147 -179 -245 -1 -42 30 -120 61 -154 42
-46 118 -203 118 -246 0 -17 4 -48 8 -67 5 -19 5 -133 1 -253 -6 -172 -11
-223 -23 -242 -9 -13 -16 -31 -16 -39 0 -22 -66 -129 -112 -181 -54 -61 -97
-80 -183 -80 -65 0 -73 2 -123 39 -62 45 -103 101 -124 171 -39 126 -47 155
-59 223 -13 78 -2 176 27 234 8 15 14 49 14 77 0 174 -249 209 -304 43 -15
-44 -15 -52 -1 -92 10 -27 32 -59 61 -84 66 -59 111 -125 133 -197 49 -162 54
-186 54 -274 0 -75 -5 -100 -26 -147 -27 -59 -72 -101 -120 -113 -15 -4 -30
-11 -33 -16 -9 -14 -81 -10 -137 8 -75 24 -156 69 -200 111 -38 37 -111 141
-153 217 -12 22 -38 69 -58 105 -20 36 -45 83 -55 105 -53 114 -52 108 -50
300 2 176 1 184 -22 221 -32 53 -46 67 -105 103 -85 52 -181 41 -276 -32 -47
-35 -74 -80 -84 -137 -9 -51 -9 -46 6 -123 15 -77 63 -124 179 -178 47 -22 88
-43 91 -47 3 -4 24 -22 48 -41 53 -42 120 -128 159 -206 16 -33 48 -91 71
-129 23 -37 42 -71 42 -75 0 -3 8 -22 18 -41 31 -59 44 -139 40 -240 -7 -144
-22 -185 -88 -238 -96 -76 -300 -273 -368 -354 -90 -107 -104 -113 -278 -113
-82 0 -151 5 -165 11 -13 6 -42 19 -64 29 -22 9 -112 60 -200 113 -190 114
-253 173 -309 289 -21 43 -46 93 -55 111 -78 159 -301 180 -413 40 -48 -59
-66 -140 -49 -211 23 -94 77 -151 171 -184 44 -16 84 -16 150 -2 50 11 70 9
205 -19 50 -11 140 -55 222 -108 35 -23 94 -57 131 -75 99 -51 190 -145 244
-255 40 -82 43 -95 43 -169 0 -74 -2 -83 -33 -128 -22 -31 -50 -56 -82 -72
-44 -22 -62 -25 -160 -25 -76 0 -122 5 -147 15 -19 8 -44 15 -54 15 -17 0 -52
13 -129 48 -43 20 -93 62 -138 116 -47 56 -84 76 -140 76 -87 0 -152 -70 -152
-162 0 -43 5 -57 34 -92 50 -61 94 -71 193 -45 43 12 100 24 128 26 73 8 230
-29 318 -73 16 -8 35 -14 43 -14 26 0 140 -124 159 -173 17 -44 17 -49 0 -117
-20 -83 -54 -123 -165 -194 -113 -72 -134 -76 -416 -76 -306 0 -340 8 -492
119 -88 64 -170 95 -221 86 -101 -19 -178 -82 -213 -174 -23 -59 -23 -104 0
-164 38 -100 132 -167 233 -167 65 0 110 18 189 75 56 41 90 58 165 84 54 19
82 21 305 21 223 0 251 -2 305 -21 81 -28 109 -44 187 -101 72 -53 108 -100
108 -141 0 -35 38 -56 112 -63 35 -3 77 -10 93 -15 17 -5 59 -13 95 -19 36 -6
101 -17 145 -25 44 -9 121 -22 170 -29 105 -17 230 -39 335 -60 291 -59 287
-59 399 -42 99 15 169 34 238 63 17 7 37 13 45 13 8 0 18 4 24 8 5 5 32 17 59
27 28 9 64 23 80 30 17 6 46 17 65 24 45 16 169 61 195 71 109 41 363 55 461
25 27 -9 72 -23 99 -31 58 -18 176 -61 220 -79 46 -19 200 -75 207 -75 4 0 19
-5 35 -12 87 -35 139 -49 233 -59 111 -13 222 -3 415 36 127 26 334 64 485 90
47 8 126 22 175 30 50 9 118 20 152 25 77 11 113 29 180 90 71 65 147 112 218
135 54 18 84 20 313 17 200 -2 262 -6 295 -18 70 -26 156 -73 211 -114 94 -70
158 -85 246 -54 66 23 91 41 130 92 32 43 35 54 38 128 3 65 0 89 -16 125 -42
91 -120 139 -224 139 -73 0 -118 -18 -203 -80 -39 -29 -82 -51 -155 -81 -26
-10 -99 -14 -284 -17 -286 -3 -303 0 -461 86 -43 23 -126 105 -145 143 -24 46
-27 143 -5 185 42 85 133 156 231 181 30 7 80 20 112 29 31 9 91 19 133 21 67
4 88 0 169 -27 91 -32 92 -32 130 -15 51 23 86 61 104 112 13 38 13 47 -1 85
-22 57 -39 76 -90 99 -81 37 -115 23 -225 -88 -70 -71 -99 -86 -218 -118 -36
-9 -87 -23 -114 -31 -64 -19 -159 -18 -204 2 -126 54 -132 60 -173 169 -19 51
-20 62 -9 99 25 79 79 181 125 235 40 47 115 111 130 111 2 0 60 32 127 70 68
39 150 83 183 99 77 35 186 56 259 47 31 -3 81 -9 112 -12 88 -10 177 37 233
125 27 42 31 57 31 120 0 84 -18 127 -77 182 -79 75 -159 94 -252 59 -65 -24
-135 -88 -147 -134 -3 -14 -10 -29 -15 -32 -5 -3 -9 -11 -9 -19 0 -26 -79
-133 -139 -186 -32 -30 -83 -66 -111 -82 -98 -52 -185 -100 -223 -124 -87 -55
-134 -66 -272 -67 -178 -1 -201 8 -297 122 -100 120 -227 250 -325 333 -102
87 -117 122 -118 279 0 107 18 190 54 252 223 379 257 419 409 493 51 25 96
45 100 45 16 1 81 68 101 105 32 60 30 181 -4 238 -29 49 -77 97 -98 97 -8 0
-20 7 -27 15 -19 23 -145 20 -195 -5 -47 -24 -89 -63 -118 -110 -20 -32 -22
-46 -20 -174 2 -110 -1 -154 -17 -212 -19 -72 -58 -163 -84 -194 -7 -8 -16
-22 -20 -30 -4 -8 -12 -24 -19 -35 -7 -12 -36 -62 -65 -112 -30 -50 -70 -107
-89 -126 -77 -80 -245 -167 -322 -167 -31 0 -146 37 -216 70 -52 24 -305 87
-396 98 -73 10 -92 24 -169 127 -49 65 -68 102 -94 180 -23 72 -23 437 0 533
22 87 66 183 118 252 65 87 76 112 76 175 0 93 -44 171 -125 223 -31 20 -55
26 -110 28 -38 2 -81 0 -95 -4z m-792 -2537 c215 -33 348 -101 488 -247 89
-93 148 -197 192 -338 22 -71 24 -330 3 -405 -37 -132 -104 -252 -201 -358
-73 -81 -238 -183 -337 -208 -18 -5 -50 -13 -70 -19 -60 -15 -311 -12 -358 5
-22 8 -46 15 -53 15 -14 0 -76 25 -102 41 -8 5 -26 14 -39 20 -41 17 -155 105
-203 157 -122 131 -203 326 -216 519 -6 107 14 202 74 353 10 25 24 52 31 61
7 8 13 19 13 23 0 15 88 122 141 171 129 121 215 164 409 205 109 23 112 23
228 5z m1834 0 c57 -9 111 -20 120 -25 10 -6 23 -10 29 -10 13 0 161 -69 169
-79 3 -3 24 -19 48 -35 49 -34 174 -164 196 -204 110 -202 132 -292 122 -492
-5 -106 -18 -165 -53 -247 -7 -17 -13 -34 -13 -37 0 -3 -14 -29 -32 -58 -56
-94 -138 -187 -211 -242 -67 -50 -211 -126 -240 -126 -6 0 -32 -7 -57 -16 -52
-18 -290 -21 -355 -3 -22 5 -56 14 -75 19 -82 21 -222 104 -304 179 -81 76
-172 219 -216 341 -6 19 -18 78 -25 130 -20 140 4 328 54 428 44 89 59 114 94
161 48 64 114 129 171 168 22 15 43 31 46 35 5 6 129 65 175 83 23 9 199 42
232 44 12 1 69 -6 125 -14z"/>
<path d="M3990 6103 c-100 -33 -212 -96 -270 -153 -52 -52 -130 -168 -130
-193 0 -7 -8 -24 -17 -37 -15 -21 -18 -49 -18 -181 0 -100 4 -165 12 -180 6
-13 21 -45 31 -71 38 -88 144 -209 224 -253 46 -26 111 -55 123 -55 7 0 30 -7
51 -16 31 -13 61 -15 144 -11 58 3 121 10 140 17 44 16 101 40 120 51 8 5 24
13 36 18 36 16 134 112 172 170 43 65 57 98 83 206 59 237 -64 509 -282 624
-109 57 -168 71 -293 70 -61 0 -118 -3 -126 -6z m386 -229 c45 -19 87 -55 116
-103 17 -26 21 -50 21 -107 0 -62 -4 -79 -26 -113 -14 -22 -43 -52 -63 -68
-31 -23 -49 -28 -110 -31 -61 -4 -81 0 -115 17 -57 30 -96 76 -115 139 -15 46
-16 61 -5 101 37 140 173 216 297 165z"/>
<path d="M5765 6087 c-134 -48 -262 -152 -326 -263 -58 -102 -73 -166 -72
-302 0 -77 5 -128 12 -135 6 -6 11 -17 11 -25 0 -14 24 -75 41 -102 5 -8 14
-26 19 -39 14 -31 146 -163 185 -184 115 -61 177 -78 301 -84 77 -4 109 -1
138 11 21 9 46 16 55 16 9 0 32 8 51 18 164 85 261 195 322 367 28 79 25 260
-6 347 -34 98 -82 172 -158 242 -64 60 -170 126 -201 126 -8 0 -28 7 -43 15
-47 24 -252 19 -329 -8z m477 -236 c56 -35 98 -114 98 -186 0 -62 -45 -143
-100 -180 -41 -27 -53 -30 -125 -30 -72 0 -84 3 -124 30 -66 45 -90 94 -91
184 0 57 5 81 21 107 29 47 86 90 144 106 42 13 55 13 99 0 27 -8 62 -22 78
-31z"/>
<path d="M2760 4458 c0 -21 7 -45 40 -138 12 -36 19 -58 44 -149 19 -65 11
-111 -38 -215 -34 -72 -88 -137 -161 -193 -45 -35 -203 -130 -255 -154 -19 -9
-61 -29 -94 -43 -119 -56 -197 -66 -339 -44 -69 10 -84 10 -132 -6 -61 -21
-118 -68 -148 -123 -28 -51 -31 -201 -4 -231 9 -10 17 -23 17 -29 0 -36 144
-113 210 -113 46 0 135 37 172 72 24 22 68 94 68 110 0 15 65 114 108 165 24
29 67 68 95 86 46 31 80 50 217 123 19 11 49 28 65 40 124 85 375 97 495 23
47 -29 55 -31 108 -24 31 4 62 10 67 15 6 4 28 11 50 14 61 11 138 37 157 54
9 7 21 33 26 56 6 22 15 55 20 71 6 17 18 57 28 90 17 61 27 94 60 196 20 66
15 86 -23 95 -15 3 -41 12 -58 19 -16 7 -77 28 -135 45 -58 18 -121 38 -140
45 -77 27 -106 37 -135 45 -16 5 -43 13 -60 19 -60 23 -305 101 -315 101 -5 0
-10 -10 -10 -22z"/>
<path d="M7245 4466 c-16 -7 -77 -28 -135 -45 -58 -18 -120 -39 -138 -47 -18
-8 -41 -14 -52 -14 -10 0 -31 -6 -47 -14 -15 -8 -55 -22 -88 -31 -33 -9 -73
-23 -90 -30 -16 -7 -41 -16 -55 -18 -24 -5 -50 -13 -130 -43 -19 -7 -47 -15
-61 -18 -30 -6 -45 -34 -29 -50 5 -5 10 -21 10 -34 0 -13 6 -38 13 -55 8 -18
22 -59 32 -92 40 -136 48 -161 61 -193 8 -18 14 -41 14 -51 0 -27 28 -46 95
-66 33 -9 80 -23 105 -30 80 -24 134 -27 252 -15 119 11 271 1 292 -20 5 -5
16 -10 24 -10 8 0 51 -23 96 -50 44 -28 88 -55 96 -60 8 -5 48 -28 88 -51 86
-49 160 -113 200 -173 27 -40 92 -169 92 -182 0 -4 16 -27 36 -51 44 -53 101
-83 175 -90 46 -4 65 -1 113 21 56 26 116 78 116 102 0 6 7 17 15 24 25 21 21
169 -6 220 -26 50 -88 101 -151 125 -42 15 -59 16 -130 7 -161 -21 -281 13
-463 129 -22 14 -47 29 -55 32 -8 4 -28 16 -45 27 -16 11 -38 23 -47 27 -74
34 -182 162 -226 268 -46 111 -48 161 -8 230 11 19 19 45 67 200 11 39 25 78
30 87 24 47 -5 61 -66 34z"/>
<path d="M3235 3458 c-2 -7 -11 -38 -20 -69 -32 -115 -42 -129 -189 -267 -82
-77 -169 -132 -210 -132 -29 0 -126 -29 -147 -44 -38 -26 -59 -73 -59 -130 0
-51 3 -57 45 -100 44 -46 45 -46 112 -46 60 0 72 4 99 28 36 31 60 80 68 138
12 87 43 134 178 267 86 85 136 127 151 127 12 0 31 7 41 15 14 10 45 15 101
15 l80 0 63 -50 c40 -33 64 -60 67 -78 3 -15 10 -43 15 -63 13 -49 13 -204 -1
-248 -12 -40 -70 -159 -99 -206 -10 -16 -31 -52 -45 -80 -26 -46 -41 -70 -99
-155 -29 -43 -66 -77 -131 -122 -49 -34 -176 -98 -194 -98 -20 0 -90 -93 -105
-140 -20 -62 -20 -76 2 -147 20 -69 76 -131 147 -162 60 -27 120 -27 180 0 49
22 125 84 125 102 0 6 7 18 16 28 13 14 15 45 15 179 -1 189 12 246 91 380
191 327 254 394 443 459 70 25 100 26 139 6 15 -8 33 -15 38 -15 6 0 24 -6 41
-14 41 -18 108 -40 177 -59 30 -9 80 -23 110 -31 51 -15 123 -29 213 -45 57
-9 143 -100 195 -206 52 -105 64 -203 52 -407 -13 -240 -15 -248 -54 -348 -7
-17 -20 -38 -93 -146 -53 -78 -53 -78 -53 -157 0 -64 4 -87 22 -116 56 -94
121 -131 229 -131 37 0 70 4 73 9 3 5 17 12 32 15 43 11 111 90 128 150 9 30
16 65 16 78 0 43 -29 107 -85 188 -30 44 -55 84 -55 90 0 5 -6 24 -14 42 -37
87 -46 175 -37 373 10 200 19 264 41 305 7 14 17 32 21 40 5 8 16 29 24 46 22
44 112 142 146 159 17 9 56 15 100 15 78 0 113 -15 177 -74 50 -46 61 -71 119
-276 23 -84 25 -242 2 -285 -43 -80 -31 -176 29 -224 32 -27 44 -31 97 -31
103 0 155 54 155 159 l0 59 -67 69 c-73 73 -113 124 -113 145 0 7 -7 22 -15
32 -8 11 -15 36 -15 56 0 20 -4 40 -9 45 -15 15 -35 124 -35 185 1 107 47 214
104 242 115 55 133 58 212 28 156 -60 259 -144 322 -262 20 -37 47 -86 61
-108 14 -22 25 -42 25 -44 0 -3 15 -31 34 -63 55 -94 86 -203 86 -303 0 -47
-5 -104 -10 -128 -17 -72 15 -161 78 -219 46 -43 142 -72 200 -61 85 15 153
64 195 140 25 47 24 166 -3 217 -27 53 -71 96 -128 122 -101 47 -115 55 -170
99 -49 40 -128 139 -165 210 -8 14 -27 50 -44 80 -125 228 -128 236 -128 395
0 125 1 132 29 183 33 59 82 102 139 123 51 18 166 -1 222 -38 98 -64 231
-202 273 -281 21 -41 39 -102 46 -154 12 -99 68 -137 192 -130 50 3 101 56
109 114 4 27 4 63 1 81 -9 46 -58 93 -109 106 -23 5 -62 15 -85 21 -24 6 -67
26 -95 44 -61 39 -213 194 -248 251 -31 51 -58 137 -61 195 l-3 45 -78 3 c-81
3 -113 -9 -157 -60 -38 -43 -205 -176 -305 -243 -165 -110 -388 -219 -535
-260 -14 -4 -29 -11 -35 -15 -5 -4 -29 -10 -53 -14 -24 -3 -51 -10 -60 -15
-21 -11 -171 -36 -305 -51 -99 -12 -332 -15 -358 -5 -8 3 -59 9 -114 15 -103
10 -217 30 -270 48 -16 5 -57 18 -90 27 -82 23 -148 47 -160 57 -5 4 -15 8
-23 8 -19 0 -235 101 -307 143 -102 60 -138 84 -190 122 -33 25 -73 54 -88 64
-15 10 -60 47 -99 82 -39 35 -80 72 -91 82 -16 14 -39 17 -124 17 -74 0 -105
-4 -108 -12z"/>
</g>
</svg>
