<svg width="300" height="300" viewBox="0 0 300 300" fill="none" xmlns="http://www.w3.org/2000/svg">
<g clip-path="url(#clip0_39_13)">
<path d="M224.962 225H212.488C212.488 205.6 213.237 202.812 201.487 200.087C183.512 195.937 166.525 192.025 160.325 178.475C158.075 173.525 156.562 165.375 162.262 154.638C175.025 130.525 178.225 109.85 171.037 97.9125C162.637 83.975 137.2 83.9125 128.725 98.125C121.525 110.225 124.775 130.788 137.637 154.525C143.45 165.225 141.987 173.4 139.737 178.375C133.612 191.988 116.787 195.875 98.9625 199.975C86.6875 202.813 87.4625 205.412 87.4625 225H75.025L75 217.213C75 201.475 76.25 192.4 94.85 188.1C115.875 183.238 136.65 178.9 126.663 160.487C97.0875 105.925 118.213 75 149.975 75C181.125 75 202.812 104.787 173.312 160.487C163.625 178.787 183.612 183.138 205.125 188.1C223.75 192.4 224.988 201.5 224.988 217.263L224.962 225V225ZM285.087 197.325C268.975 193.6 253.975 190.337 261.238 176.612C283.363 134.837 267.113 112.5 243.738 112.5C227.925 112.5 215.637 122.712 215.637 141.562C215.637 157.425 222.813 168.75 226.938 178.125H240.037C237.912 168.75 221.713 146.1 230.463 131.425C235.613 122.775 251.763 122.762 256.888 131.275C261.638 139.162 259.15 153.925 250.213 170.788C245.363 179.95 246.712 187.05 248.7 191.387C252.512 199.712 260.912 203.725 270.412 206.487C289.25 212 287.512 207.013 287.512 224.988H299.975L300 219.2C300 207.387 299.075 200.55 285.087 197.325V197.325ZM0.025 225H12.4875C12.4875 207.025 10.75 212.013 29.5875 206.5C39.1 203.738 47.5 199.725 51.3 191.4C53.2875 187.05 54.6375 179.962 49.7875 170.8C40.85 153.937 38.3625 139.175 43.1125 131.288C48.2375 122.763 64.3875 122.775 69.5375 131.438C78.2875 146.125 62.0875 168.763 59.9625 178.138H73.0625C77.1875 168.763 84.3625 157.438 84.3625 141.575C84.375 122.713 72.0875 112.5 56.275 112.5C32.9 112.5 16.65 134.837 38.775 176.612C46.0375 190.35 31.0375 193.6 14.925 197.325C0.925 200.55 0 207.388 0 219.213L0.025 225V225Z" fill="#3E3E3E"/>
<line x1="6.8424" y1="78.2163" x2="293.216" y2="246.158" stroke="#3E3E3E" stroke-width="10" stroke-linecap="round"/>
</g>
<defs>
<clipPath id="clip0_39_13">
<rect width="300" height="300" fill="white"/>
</clipPath>
</defs>
</svg>
