<svg width="300" height="300" viewBox="0 0 300 300" fill="none" xmlns="http://www.w3.org/2000/svg">
<g clip-path="url(#clip0_39_23)">
<path fill-rule="evenodd" clip-rule="evenodd" d="M210.437 0C189.737 0 172.938 16.8 172.938 37.4875C172.938 58.175 189.737 74.975 210.437 74.975C231.125 74.975 247.937 58.175 247.937 37.4875C247.937 16.8 231.125 0 210.437 0ZM210.437 12.5C224.225 12.5 235.437 23.7 235.437 37.4875C235.437 51.275 224.225 62.4875 210.437 62.4875C196.65 62.4875 185.438 51.275 185.438 37.4875C185.438 23.7 196.65 12.5 210.437 12.5V12.5ZM89.575 0C68.875 0 52.075 16.8 52.075 37.4875C52.075 58.175 68.875 74.975 89.575 74.975C110.262 74.975 127.075 58.175 127.075 37.4875C127.075 16.8 110.262 0 89.575 0V0ZM89.575 12.5C103.362 12.5 114.575 23.7 114.575 37.4875C114.575 51.275 103.362 62.4875 89.575 62.4875C75.7875 62.4875 64.575 51.275 64.575 37.4875C64.575 23.7 75.7875 12.5 89.575 12.5V12.5ZM210.175 197.85C218.85 197.85 225.562 204.4 226.137 213.412C226.762 222.675 228.288 240.925 229.638 257.025L231.588 280.725C231.838 283.863 233.637 287.5 237.937 287.5C242.987 287.5 243.625 282.188 243.688 280.55L249.587 137.462C249.862 131.062 258.35 129.275 261.3 134.687L281.862 171.9C283.337 174.587 287.5 173.463 287.5 170.438L267.5 99.5C266.337 95.3125 262.475 92.4125 258.137 92.4125H41.85C37.525 92.4125 33.6625 95.3125 32.4875 99.4875L12.6125 169.613C12.3375 174.638 17.1625 173.687 18.1375 171.9L38.7 134.687C41.75 129.2 50.15 131.15 50.4125 137.462L56.3 280.562C56.4375 283.762 58.125 287.5 62.425 287.5C66.5375 287.5 68.6375 284.112 68.9 280.737L70.9 256.487C72.2375 240.525 73.7375 222.587 74.3625 213.387C74.95 204.4 81.6625 197.85 90.325 197.85C97.625 197.85 105.55 203.663 106.2 213.4C106.813 222.575 108.313 240.512 109.65 256.475L111.65 280.725C111.888 283.863 113.662 287.5 117.887 287.5C122.662 287.5 123.375 282.638 123.462 280.55C124.987 243.6 131.325 126.925 131.4 125.75C131.575 122.425 134.312 119.837 137.637 119.837H162.175C165.5 119.837 168.237 122.437 168.412 125.762C168.487 126.937 174.588 243.6 176.125 280.562C176.275 284.012 178.3 287.5 182.487 287.5C186.787 287.5 188.613 283.862 188.838 280.737L190.9 255.962C192.213 240.137 193.687 222.475 194.3 213.387C194.95 203.662 202.887 197.85 210.175 197.85V197.85ZM237.95 300C227.862 300 219.95 292.3 219.125 281.687C218.688 276 217.975 267.4 217.188 258.075C215.837 241.9 214.3 223.562 213.663 214.237C213.475 211.35 211.737 210.35 210.175 210.35C209.187 210.35 206.975 211.325 206.775 214.225C206.162 223.363 204.675 241.1 203.35 257C202.525 266.737 201.775 275.775 201.312 281.7C200.5 292.3 192.587 300 182.512 300C172.187 300 164.088 291.875 163.625 281.087C162.3 249 157.512 156.662 156.237 132.337H143.55C142.238 156.637 137.275 249 135.95 281.075C135.475 292.225 128.063 300 117.9 300C107.863 300 100 292.3 99.1875 281.687L97.1875 257.512C95.85 241.475 94.3375 223.462 93.725 214.237C93.525 211.325 91.3 210.35 90.325 210.35C88.7625 210.35 87.0125 211.362 86.8375 214.212C86.2125 223.462 84.7 241.487 83.3625 257.525L81.3625 281.7C80.55 292.3 72.5875 300 62.45 300C52.1125 300 44.2875 292.037 43.8125 281.087L38.8375 160.275L29.0875 177.937C25.05 185.237 15.4875 187.7 9.425 184.662C3.675 182.225 0 176.7 0 170.438C0 169 0.2 167.575 0.5875 166.2L20.4625 96.0875C23.15 86.5625 31.95 79.9125 41.85 79.9125H258.137C268.05 79.9125 276.85 86.575 279.538 96.0875L299.412 166.212C299.8 167.575 300 169 300 170.438C300 176.725 296.287 182.275 290.512 184.687L290.05 184.9C282.975 187.625 274.575 184.55 270.925 177.925L261.162 160.275L256.188 281.075C255.713 292.225 248.212 300 237.95 300" fill="#3E3E3E"/>
<line x1="10.6066" y1="11" x2="289" y2="289.393" stroke="#3E3E3E" stroke-width="15" stroke-linecap="round"/>
</g>
<defs>
<clipPath id="clip0_39_23">
<rect width="300" height="300" fill="white"/>
</clipPath>
</defs>
</svg>
