<svg width="300" height="300" viewBox="0 0 300 300" fill="none" xmlns="http://www.w3.org/2000/svg">
<path d="M188.956 210.531C192.925 200.988 185.381 189.794 175 190H130V177.5C130 172.859 128.156 168.408 124.874 165.126C121.592 161.844 117.141 160 112.5 160H109.506C115.438 143.038 96.4438 128.125 81.3813 138.075L2.225 190.837C1.54007 191.294 0.97859 191.914 0.590436 192.64C0.202282 193.366 -0.000533743 194.177 1.0549e-06 195V275C1.0549e-06 276.326 0.526785 277.598 1.46447 278.536C2.40215 279.473 3.67392 280 5 280H40V285C39.9562 297.919 55.5438 304.775 65 296.169C70.4313 301.238 79.5687 301.238 85 296.169C90.4313 301.238 99.5687 301.238 105 296.169C114.463 304.775 130.044 297.913 130 285V280H170C180.256 280.1 187.631 269.631 184.15 260C197.506 260.625 205.031 245.031 196.188 235C203.675 226.8 199.481 213.269 188.956 210.531ZM120 177.5V202.5C119.588 212.45 105.412 212.45 105 202.5V195C104.998 193.672 104.472 192.399 103.538 191.456L92.0687 180L102.069 170H112.5C114.489 170 116.397 170.79 117.803 172.197C119.21 173.603 120 175.511 120 177.5ZM55 290C53.6739 290 52.4021 289.473 51.4645 288.536C50.5268 287.598 50 286.326 50 285V265C50 263.674 50.5268 262.402 51.4645 261.464C52.4021 260.527 53.6739 260 55 260C56.3261 260 57.5979 260.527 58.5355 261.464C59.4732 262.402 60 263.674 60 265V285C60 286.326 59.4732 287.598 58.5355 288.536C57.5979 289.473 56.3261 290 55 290ZM75 290C73.6739 290 72.4021 289.473 71.4645 288.536C70.5268 287.598 70 286.326 70 285V255C70.25 248.381 79.75 248.369 80 255V285C80 286.326 79.4732 287.598 78.5355 288.536C77.5979 289.473 76.3261 290 75 290ZM95 290C93.6739 290 92.4021 289.473 91.4645 288.536C90.5268 287.598 90 286.326 90 285V255C90.25 248.381 99.75 248.369 100 255V285C100 286.326 99.4732 287.598 98.5355 288.536C97.5979 289.473 96.3261 290 95 290ZM120 285C119.75 291.619 110.25 291.625 110 285V265C110.25 258.381 119.75 258.375 120 265V285ZM188.544 228.531C188.079 228.997 187.526 229.367 186.918 229.619C186.31 229.871 185.658 230.001 185 230H140C133.387 230.244 133.369 239.75 140 240H185C191.606 240.188 191.613 249.812 185 250H140C138.674 250 137.402 250.527 136.464 251.464C135.527 252.402 135 253.674 135 255C135 256.326 135.527 257.598 136.464 258.536C137.402 259.473 138.674 260 140 260H170C174.375 259.919 176.675 265.494 173.544 268.531C173.079 268.997 172.526 269.367 171.918 269.619C171.31 269.871 170.658 270.001 170 270H130V265C130.219 254.625 118.988 247.056 109.469 251.062C106.681 240.438 93.175 236.356 85 243.831C76.825 236.331 63.3125 240.45 60.5312 251.062C51.0125 247.056 39.7812 254.625 40 265V270H10V197.675L86.925 146.425C92.6188 142.512 100.675 146.831 100.581 153.731C100.584 154.886 100.358 156.031 99.9156 157.098C99.4737 158.165 98.8247 159.135 98.0062 159.95L96.4625 161.494L81.4625 176.494C80.9976 176.958 80.6288 177.51 80.3772 178.117C80.1256 178.724 79.9961 179.374 79.9961 180.031C79.9961 180.688 80.1256 181.339 80.3772 181.946C80.6288 182.553 80.9976 183.104 81.4625 183.569L95 197.069V202.5C95 207.141 96.8437 211.592 100.126 214.874C103.408 218.156 107.859 220 112.5 220C123.431 219.906 130.931 210.688 130 200H175C181.619 200.238 181.619 209.781 175 210H140C138.674 210 137.402 210.527 136.464 211.464C135.527 212.402 135 213.674 135 215C135 216.326 135.527 217.598 136.464 218.536C137.402 219.473 138.674 220 140 220H185C189.375 219.944 191.675 225.475 188.544 228.531ZM280 70.5V55C280 53.6739 279.473 52.4021 278.536 51.4645C277.598 50.5268 276.326 50 275 50V5C275 3.67392 274.473 2.40215 273.536 1.46447C272.598 0.526784 271.326 0 270 0H240C238.674 0 237.402 0.526784 236.464 1.46447C235.527 2.40215 235 3.67392 235 5V10H180C179.343 9.99948 178.693 10.1284 178.086 10.3793C177.479 10.6303 176.927 10.9983 176.462 11.4625L151.462 36.4625C150.998 36.9269 150.629 37.4783 150.377 38.0853C150.126 38.6923 149.996 39.3429 149.996 40C149.996 40.6571 150.126 41.3077 150.377 41.9147C150.629 42.5217 150.998 43.0731 151.462 43.5375L166.462 58.5375C166.927 59.0024 167.478 59.3712 168.085 59.6228C168.692 59.8744 169.343 60.0039 170 60.0039C170.657 60.0039 171.308 59.8744 171.915 59.6228C172.522 59.3712 173.073 59.0024 173.538 58.5375L192.069 40H235V50C233.674 50 232.402 50.5268 231.464 51.4645C230.527 52.4021 230 53.6739 230 55V70.5C224.357 71.6603 219.286 74.7306 215.643 79.1935C212 83.6564 210.007 89.2389 210 95V295C210 296.326 210.527 297.598 211.464 298.536C212.402 299.473 213.674 300 215 300H295C296.326 300 297.598 299.473 298.536 298.536C299.473 297.598 300 296.326 300 295V95C299.993 89.2389 298 83.6564 294.357 79.1935C290.714 74.7306 285.643 71.6603 280 70.5ZM290 160C279.294 151.644 262.825 154.15 255 165C247.169 154.15 230.706 151.65 220 160V100H290V160ZM290 180C290 183.978 288.42 187.794 285.607 190.607C282.794 193.42 278.978 195 275 195C255.1 194.175 255.106 165.819 275 165C278.978 165 282.794 166.58 285.607 169.393C288.42 172.206 290 176.022 290 180ZM240 60H270V70H240V60ZM190 30C189.343 29.9995 188.693 30.1284 188.086 30.3793C187.479 30.6303 186.927 30.9983 186.462 31.4625L170 47.9313L162.069 40L182.069 20H235V30H190ZM245 35V10H265V50H245V35ZM235 80H275C278.102 79.9997 281.128 80.9612 283.661 82.7521C286.194 84.543 288.11 87.0752 289.144 90H220.856C221.89 87.0752 223.806 84.543 226.339 82.7521C228.872 80.9612 231.898 79.9997 235 80ZM220 290V180C220 176.022 221.58 172.206 224.393 169.393C227.206 166.58 231.022 165 235 165C238.978 165 242.794 166.58 245.607 169.393C248.42 172.206 250 176.022 250 180C250 184.643 251.293 189.194 253.734 193.143C256.175 197.093 259.667 200.284 263.82 202.361C267.972 204.437 272.621 205.316 277.245 204.899C281.869 204.482 286.286 202.786 290 200V290H220ZM130 127.05C140.538 138.031 159.5 138.038 170.038 127.05C174.654 122.415 177.528 116.328 178.172 109.818C178.817 103.308 177.193 96.7752 173.575 91.325L154.2 62.225C153.744 61.5392 153.125 60.9767 152.399 60.5877C151.672 60.1987 150.861 59.9951 150.038 59.9951C149.214 59.9951 148.403 60.1987 147.676 60.5877C146.95 60.9767 146.331 61.5392 145.875 62.225L126.5 91.325C122.877 96.7711 121.247 103.301 121.885 109.811C122.523 116.321 125.389 122.411 130 127.05ZM134.762 96.875L150 74.0125L165.238 96.875C173.331 108.869 164.481 125.475 150 125.35C135.519 125.469 126.669 108.856 134.762 96.875Z" fill="#3E3E3E"/>
</svg>
