<svg width="300" height="300" viewBox="0 0 300 300" fill="none" xmlns="http://www.w3.org/2000/svg">
<path fill-rule="evenodd" clip-rule="evenodd" d="M272.825 112.5H246.75C248.887 106.413 250.025 100.538 250.025 94.875C250.025 65.8 227.3 47.675 199.725 50.2125C166.212 53.3 143.25 96.5875 137.5 106.263C130.912 95.475 109.238 53.2875 75.2375 50.0875C48.8625 47.6 25 64.85 25 94.8625C25 133.725 79.3375 183.413 137.513 240.05C152.013 225.963 166.075 212.45 179.062 199.513L191.188 222.725C174.713 239 156.575 256.3 137.513 274.988C60.4625 199.525 0 147.463 0 94.95C0 53.775 30.775 25.875 70.925 25C97.9625 24.8875 122.488 36.9625 137.513 61.9C152.225 37.45 176.837 25.125 203.175 25.125C241.475 25.125 275 51.5625 275 95.0625C275 100.863 274.25 106.663 272.825 112.5V112.5ZM134.15 162.5C129.825 169.975 121.75 175 112.5 175C98.7 175 87.5 163.8 87.5 150C87.5 136.2 98.7 125 112.5 125C121.75 125 129.825 130.025 134.15 137.5H149.425L172.925 103.625C174.675 101.1 177.625 99.6875 180.7 99.8875C183.763 100.088 186.5 101.9 187.9 104.638L216.275 160.1L226.437 141.975C227.987 139.213 230.9 137.5 234.075 137.5H300V162.5H243.587L221.6 198.85C219.95 201.588 216.938 203.2 213.738 203.063C210.55 202.938 207.687 201.063 206.262 198.2L178.062 141.213L165.7 158.788C164.062 161.113 161.387 162.5 158.537 162.5H134.15V162.5Z" fill="#3E3E3E"/>
</svg>
