<svg width="300" height="300" viewBox="0 0 300 300" fill="none" xmlns="http://www.w3.org/2000/svg">
<g clip-path="url(#clip0_43_2)">
<path d="M267.251 292.969C250.795 292.969 236.009 273.682 231.548 267.262C218.993 249.195 208.151 240.183 193.144 227.714C190.664 225.652 188.077 223.5 185.36 221.21C167.503 206.149 169.059 161.173 171.08 138.795L151.648 125.06L128.925 138.863C130.973 161.496 132.476 206.149 114.64 221.21C111.921 223.502 109.336 225.652 106.854 227.714C91.8492 240.187 81.0047 249.197 68.4539 267.265C63.5273 274.352 46.0242 297.098 27.6047 292.32C13.4625 288.652 4.88904 270.919 1.39216 238.109C-6.01174 168.663 16.4179 103.062 61.3898 62.625C76.7414 48.8156 89.6062 43.9008 100.744 47.6508C117.403 53.2453 121.945 75.9469 124.127 86.857C124.615 89.2945 125.084 92.1563 125.529 95.4094C130.287 93.4852 132.905 91.6992 133.669 90.6891C133.671 80.8523 133.744 67.2445 133.744 67.2445L133.777 60.7055H168.637V90.0984C169.12 90.7664 170.829 92.1727 174.701 93.8016C175.069 91.2562 175.458 88.9383 175.866 86.8687C178.05 75.9469 182.592 53.2453 199.256 47.6508C210.384 43.9055 223.268 48.8109 238.631 62.6203C283.591 103.073 306.009 168.673 298.608 238.102C295.113 270.914 286.54 288.645 272.398 292.313C270.668 292.763 268.95 292.969 267.251 292.969ZM93.3656 59.618C87.4289 59.618 79.4719 63.9797 70.0758 72.4336C28.2351 110.058 7.40857 171.464 14.3625 236.7C18.1851 272.534 27.1711 278.627 30.8554 279.581C37.3828 281.273 48.464 273.11 57.764 259.72C71.3367 240.185 83.3484 230.203 98.5523 217.566C101.011 215.524 103.573 213.396 106.263 211.125C117.136 201.947 118.77 166.903 115.563 136.245L115.127 132.084L118.662 129.741L152.184 109.38L184.826 132.45L184.427 136.294C181.488 164.728 182.163 201.368 193.732 211.125C196.423 213.396 198.984 215.524 201.443 217.566C216.649 230.205 228.661 240.188 242.231 259.72C251.531 273.108 262.584 281.295 269.142 279.581C272.829 278.627 281.815 272.534 285.635 236.7L292.12 237.401L285.635 236.7C292.587 171.476 271.77 110.065 229.945 72.4312C218.698 62.325 209.508 58.0664 203.381 60.1242C193.887 63.3141 190.221 81.6328 188.655 89.4562C187.936 93.0984 187.245 97.8914 186.659 103.308L185.829 110.998L178.434 108.93C163.062 104.639 155.59 98.5969 155.59 90.4617V73.8516H146.756C146.735 78.7969 146.712 85.657 146.712 91.1906C146.712 99.3656 138.57 105.696 121.814 110.541L114.354 112.697L113.529 104.918C112.856 98.557 112.118 93.3516 111.337 89.4539C109.772 81.6305 106.109 63.307 96.6187 60.1219C95.6156 59.7844 94.5304 59.618 93.3656 59.618ZM222.666 80.1844L219.994 83.6414C255.314 111.349 274.861 158.719 272.283 210.359L276.623 210.577C279.277 157.516 259.106 108.769 222.666 80.1844ZM27.5109 210.281C25.0945 158.627 44.7984 111.321 80.2219 83.7375L77.564 80.2711C41.0203 108.727 20.6859 157.404 23.1679 210.485L27.5109 210.281ZM169.001 42.0891H134.102V55.2352H168.998V42.0891H169.001ZM169.001 24.5602H134.102V37.7062H168.998V24.5602H169.001ZM169.001 7.03125H134.102V20.1773H168.998V7.03125H169.001Z" fill="#3E3E3E"/>
<path d="M204.775 192.85C200.437 196.1 195.162 197.863 189.75 197.863C179.713 197.863 174.662 185.6 181.737 178.525C185.575 174.687 190.513 172.212 195.9 171.45C206.038 169.987 210.487 157.425 203.025 149.975C195.575 142.513 183.013 146.975 181.55 157.113C180.775 162.475 178.288 167.45 174.475 171.275C167.363 178.375 155.125 173.325 155.125 163.25C155.125 157.812 156.888 152.575 160.125 148.225C166.287 140.025 160.525 128 150 128C139.475 128 133.713 140.013 139.863 148.225C143.1 152.563 144.863 157.838 144.863 163.25C144.863 173.312 132.625 178.375 125.512 171.263C121.662 167.425 119.2 162.488 118.438 157.1C116.975 146.963 104.412 142.512 96.9625 149.962C89.5 157.412 93.9625 169.975 104.087 171.438C109.437 172.212 114.412 174.688 118.25 178.513C125.363 185.625 120.312 197.85 110.237 197.85C104.8 197.85 99.5625 196.1 95.2125 192.838C87.025 186.713 75 192.475 75 203C75 213.512 87.025 219.288 95.225 213.15C99.5625 209.9 104.838 208.137 110.25 208.137C120.312 208.137 125.375 220.363 118.263 227.475C114.425 231.313 109.488 233.788 104.1 234.55C93.9625 236.013 89.5125 248.575 96.975 256.025C104.425 263.488 116.988 259.025 118.45 248.887C119.225 243.525 121.712 238.55 125.525 234.725C132.637 227.625 144.875 232.675 144.875 242.75C144.875 248.188 143.112 253.425 139.875 257.775C133.725 265.962 139.45 278 150 278C160.488 278 166.325 266 160.137 257.75C156.887 253.45 155.137 248.2 155.137 242.812C155.137 232.725 167.375 227.613 174.488 234.725C178.338 238.575 180.8 243.513 181.562 248.9C183.025 259.038 195.588 263.488 203.038 256.038C210.488 248.6 206.062 236 195.887 234.562C190.562 233.8 185.612 231.337 181.8 227.537C174.65 220.4 179.687 208.15 189.762 208.15C195.2 208.15 200.438 209.9 204.788 213.162C212.963 219.275 225 213.55 225 203C225 192.462 212.962 186.712 204.775 192.85ZM137.725 219.7C134.313 219.7 131.537 216.937 131.537 213.512C131.537 210.1 134.313 207.325 137.725 207.325C141.138 207.325 143.912 210.1 143.912 213.512C143.912 216.937 141.138 219.7 137.725 219.7ZM145.6 200.062C140.237 200.062 135.913 195.713 135.913 190.363C135.913 185 140.25 180.65 145.6 180.65C150.95 180.65 155.312 185 155.312 190.363C155.325 195.713 150.962 200.062 145.6 200.062ZM163.9 218.613C159.363 218.613 155.688 214.937 155.688 210.4C155.688 205.862 159.363 202.175 163.9 202.175C168.438 202.175 172.113 205.862 172.113 210.4C172.113 214.937 168.45 218.613 163.9 218.613Z" fill="#3E3E3E"/>
</g>
<defs>
<clipPath id="clip0_43_2">
<rect width="300" height="300" fill="white"/>
</clipPath>
</defs>
</svg>
