<svg width="300" height="300" viewBox="0 0 300 300" fill="none" xmlns="http://www.w3.org/2000/svg">
<path d="M93.4887 120.027C90.0359 120.027 87.2366 122.827 87.2366 126.279C87.2366 129.732 90.0359 132.532 93.4887 132.532H206.511C209.964 132.532 212.763 129.732 212.763 126.279C212.763 122.827 209.964 120.027 206.511 120.027H93.4887V120.027Z" fill="#3E3E3E"/>
<path d="M94.8525 143.584C91.3997 143.584 88.6003 146.383 88.6003 149.836C88.6003 153.289 91.3997 156.088 94.8525 156.088H205.147C208.6 156.088 211.399 153.289 211.399 149.836C211.399 146.383 208.6 143.584 205.147 143.584H94.8525V143.584Z" fill="#3E3E3E"/>
<path d="M104.977 167.14C101.524 167.14 98.7244 169.939 98.7244 173.392C98.7244 176.845 101.524 179.644 104.977 179.644H195.024C198.476 179.644 201.276 176.845 201.276 173.392C201.276 169.939 198.476 167.14 195.024 167.14H104.977V167.14Z" fill="#3E3E3E"/>
<path d="M60.9543 91.893C88.8945 80.1839 119.472 74.328 150 74.328C180.722 74.328 211.495 80.2578 239.579 92.1164L237.161 97.8556L239.593 92.0959C241.818 93.0351 243.215 95.1109 243.395 97.3624C252.194 152.274 232.885 189.621 203.683 209.25C187.72 219.979 168.843 225.344 150 225.344C131.157 225.344 112.28 219.979 96.3178 209.25C67.0245 189.56 47.6834 152.045 56.6843 96.8545L62.8386 97.8557L56.6682 96.8494C57.0607 94.4426 58.7785 92.5824 60.9545 91.8932L60.9543 91.893ZM150 86.8323C122.014 86.8323 94.0729 91.9789 68.4759 102.269C61.6962 149.948 78.2854 182.113 103.253 198.895C117.084 208.191 133.525 212.839 150 212.839C166.475 212.839 182.916 208.191 196.747 198.895C221.714 182.113 238.304 149.948 231.524 102.269C205.927 91.9789 177.987 86.8323 150 86.8323V86.8323Z" fill="#3E3E3E"/>
<path d="M61.226 157.262C64.3955 158.611 68.0588 157.134 69.4073 153.965C70.7559 150.796 69.2797 147.132 66.1102 145.784C36.5222 133.15 19.7243 114.894 14.2045 102.282C12.5611 98.5266 12.0135 95.8545 12.5599 94.6737C12.6677 94.4406 12.9942 95.2337 14.2761 95.614C22.2462 97.9786 36.0724 108.78 55.6257 133.051C57.7835 135.734 61.7091 136.161 64.3931 134.003C67.077 131.845 67.5035 127.92 65.3457 125.236C43.9967 98.7363 27.7992 86.6162 17.7929 83.6475C9.51978 81.1929 3.90961 83.6535 1.22844 89.4476C-0.798292 93.8276 -0.340477 100.145 2.77521 107.264C9.25234 122.064 28.3054 143.205 61.226 157.262H61.226Z" fill="#3E3E3E"/>
<path d="M233.89 145.784C230.72 147.132 229.244 150.795 230.593 153.965C231.941 157.134 235.605 158.611 238.774 157.262C271.695 143.205 290.748 122.064 297.225 107.264C300.34 100.145 300.798 93.8276 298.772 89.4476C296.09 83.6535 290.48 81.1929 282.207 83.6475C272.201 86.6162 256.003 98.7363 234.654 125.236C232.497 127.92 232.923 131.845 235.607 134.003C238.291 136.161 242.216 135.734 244.374 133.05C263.928 108.78 277.754 97.9786 285.724 95.614C287.006 95.2337 287.332 94.4406 287.44 94.6737C287.987 95.8545 287.439 98.5266 285.795 102.282C280.276 114.894 263.478 133.15 233.89 145.784H233.89Z" fill="#3E3E3E"/>
</svg>
