<svg width="300" height="300" viewBox="0 0 300 300" fill="none" xmlns="http://www.w3.org/2000/svg">
<path d="M129.775 189.85C125.437 193.1 120.163 194.862 114.75 194.862C104.713 194.862 99.6625 182.6 106.737 175.525C110.575 171.687 115.512 169.212 120.9 168.45C131.037 166.987 135.487 154.425 128.025 146.975C120.575 139.513 108.013 143.975 106.55 154.113C105.775 159.475 103.288 164.45 99.475 168.275C92.3625 175.375 80.125 170.325 80.125 160.25C80.125 154.812 81.8875 149.575 85.125 145.225C91.2875 137.025 85.525 125 75 125C64.475 125 58.7125 137.013 64.8625 145.225C68.1 149.563 69.8625 154.837 69.8625 160.25C69.8625 170.312 57.625 175.375 50.5125 168.263C46.6625 164.425 44.2 159.488 43.4375 154.1C41.975 143.963 29.4125 139.512 21.9625 146.962C14.5 154.412 18.9625 166.975 29.0875 168.438C34.4375 169.213 39.4125 171.688 43.25 175.513C50.3625 182.625 45.3125 194.85 35.2375 194.85C29.8 194.85 24.5625 193.1 20.2125 189.838C12.025 183.713 0 189.475 0 200C0 210.513 12.025 216.288 20.225 210.15C24.5625 206.9 29.8375 205.137 35.25 205.137C45.3125 205.137 50.375 217.363 43.2625 224.475C39.425 228.313 34.4875 230.788 29.1 231.55C18.9625 233.013 14.5125 245.575 21.975 253.025C29.425 260.488 41.9875 256.025 43.45 245.887C44.225 240.525 46.7125 235.55 50.525 231.725C57.6375 224.625 69.875 229.675 69.875 239.75C69.875 245.188 68.1125 250.425 64.875 254.775C58.725 262.962 64.45 275 75 275C85.4875 275 91.325 263 85.1375 254.75C81.8875 250.45 80.1375 245.2 80.1375 239.812C80.1375 229.725 92.375 224.613 99.4875 231.725C103.338 235.575 105.8 240.513 106.562 245.9C108.025 256.038 120.588 260.488 128.038 253.038C135.488 245.6 131.062 233 120.887 231.562C115.562 230.8 110.612 228.337 106.8 224.537C99.65 217.4 104.687 205.15 114.762 205.15C120.2 205.15 125.438 206.9 129.788 210.162C137.963 216.275 150 210.55 150 200C150 189.463 137.962 183.712 129.775 189.85V189.85ZM62.725 216.7C59.3125 216.7 56.5375 213.937 56.5375 210.512C56.5375 207.1 59.3125 204.325 62.725 204.325C66.1375 204.325 68.9125 207.1 68.9125 210.512C68.9125 213.937 66.1375 216.7 62.725 216.7ZM70.6 197.063C65.2375 197.063 60.9125 192.713 60.9125 187.363C60.9125 182 65.25 177.65 70.6 177.65C75.95 177.65 80.3125 182 80.3125 187.363C80.325 192.713 75.9625 197.063 70.6 197.063ZM88.9 215.613C84.3625 215.613 80.6875 211.937 80.6875 207.4C80.6875 202.862 84.3625 199.175 88.9 199.175C93.4375 199.175 97.1125 202.862 97.1125 207.4C97.1125 211.937 93.45 215.613 88.9 215.613ZM300 37.5V181.687C300 239.225 259.962 254.237 187.5 300C171.025 289.587 156.3 280.812 143.263 272.712C150.45 266.7 154.438 259.525 156.025 251.137C165.163 256.837 175.575 263.163 187.513 270.525C253.925 229.513 275.012 219.712 275.012 181.687V62C244.437 60.45 218.763 54.3625 187.513 31.8C156.263 54.3625 130.588 60.45 100.013 62V109.575C93.25 103.525 84.4625 100 75 100V37.5C118.95 37.5 145.362 35.825 187.5 0C229.638 35.825 256.05 37.5 300 37.5ZM250 181.687C250 201.762 244.813 205.875 187.5 241.188V61.775C210.338 75.5875 230.925 81.775 250 84.6875V181.687Z" fill="#3E3E3E"/>
</svg>
