<svg width="300" height="300" viewBox="0 0 300 300" fill="none" xmlns="http://www.w3.org/2000/svg">
<path d="M79.6873 32.8126H46.8748C44.2856 32.8126 42.1873 34.911 42.1873 37.5001C42.1873 40.0892 44.2856 42.1876 46.8748 42.1876H79.6873C82.2764 42.1876 84.3748 40.0892 84.3748 37.5001C84.3748 34.911 82.2764 32.8126 79.6873 32.8126Z" fill="#3E3E3E"/>
<path d="M79.0227 23.3917C81.5844 23.758 83.9611 21.98 84.3291 19.4165C84.6971 16.853 82.9174 14.4763 80.3539 14.1101L47.5413 9.42261C44.9778 9.05457 42.6011 10.8362 42.2349 13.396C41.8669 15.9595 43.6485 18.3362 46.2101 18.7042L79.0227 23.3917Z" fill="#3E3E3E"/>
<path d="M79.0227 51.6102L46.2101 56.2977C43.6485 56.6639 41.8669 59.0406 42.2349 61.6041C42.6011 64.1676 44.9778 65.9455 47.5413 65.5793L80.3539 60.8918C82.9174 60.5237 84.6971 58.147 84.3291 55.5836C83.9611 53.0237 81.5844 51.2421 79.0227 51.6102Z" fill="#3E3E3E"/>
<path d="M252.792 143.568L248.134 131.926C245.662 125.731 240.654 120.896 234.375 118.641V103.125C234.375 100.536 232.277 98.4376 229.688 98.4376H206.25V65.6251H248.438C249.882 65.6251 251.247 64.9622 252.135 63.8215C253.021 62.6844 253.336 61.2012 252.984 59.8005L245.387 29.3994C243.822 23.1409 238.195 18.75 231.74 18.75H112.5C102.145 18.75 93.75 27.1454 93.75 37.5C93.75 47.8565 102.145 56.2501 112.5 56.2501H129.183C125.685 65.0483 118.453 81.1689 109.186 90.4359C107.574 92.0655 107.375 94.6199 108.713 96.4784C110.056 98.3369 112.544 98.9521 114.597 97.9359C114.771 97.848 130.064 90.185 150 78.5212V98.4376H135.938C133.348 98.4376 131.25 100.536 131.25 103.125V118.641C124.977 120.894 119.965 125.73 117.493 131.92L112.833 143.568C112.614 144.124 112.502 144.716 112.5 145.313V267.188C112.517 280.126 123.001 290.609 135.938 290.625H229.688C242.626 290.609 253.111 280.126 253.125 267.188V145.313C253.125 144.716 253.012 144.124 252.792 143.568ZM239.423 135.405L243.75 146.212V197.161C238.746 197.765 233.943 199.479 229.688 202.183C221.089 207.607 210.136 207.607 201.535 202.183C195.961 198.587 189.443 196.74 182.813 196.875V126.563H226.368C232.125 126.544 237.307 130.051 239.423 135.405V135.405ZM103.125 37.5C103.125 32.3236 107.322 28.125 112.5 28.125H117.188V46.875H112.5C107.322 46.875 103.125 42.6783 103.125 37.5ZM128.212 80.1106C132.508 72.4567 136.196 64.4807 139.243 56.2501H150V67.6411C141.934 72.4421 134.434 76.6938 128.212 80.1106ZM154.688 46.875H126.563V28.125H231.74C233.894 28.125 235.77 29.5899 236.292 31.6791L237.746 37.5H206.25C203.661 37.5 201.563 39.5984 201.563 42.1875C201.563 44.7766 203.661 46.875 206.25 46.875H239.063C239.396 46.8457 239.724 46.7798 240.042 46.6791L242.434 56.2501H201.563C198.974 56.2501 196.875 58.3484 196.875 60.9376V98.4376H159.375V51.5625C159.375 48.9734 157.277 46.875 154.688 46.875V46.875ZM140.625 107.813H225V117.188H140.625V107.813ZM126.204 135.405C128.32 130.051 133.502 126.544 139.255 126.563H173.438V198.029C170.14 198.981 166.985 200.376 164.063 202.183C155.46 207.609 144.505 207.609 135.901 202.183C131.644 199.486 126.839 197.772 121.838 197.166V146.212L126.204 135.405ZM243.75 267.188C243.75 274.955 237.455 281.25 229.688 281.25H135.938C128.172 281.25 121.875 274.955 121.875 267.188V206.593C125.219 207.21 128.405 208.484 131.25 210.343C142.738 217.414 157.227 217.414 168.713 210.343C170.222 209.438 171.788 208.634 173.401 207.938V253.125C173.401 255.714 175.499 257.813 178.089 257.813C180.678 257.813 182.776 255.714 182.776 253.125V206.25C187.769 206.129 192.682 207.55 196.839 210.319C208.328 217.394 222.821 217.394 234.311 210.319C237.153 208.457 240.343 207.182 243.686 206.571L243.75 267.188Z" fill="#3E3E3E"/>
<path d="M182.812 46.8751H187.5C190.089 46.8751 192.188 44.7767 192.188 42.1876C192.188 39.5985 190.089 37.5001 187.5 37.5001H182.812C180.223 37.5001 178.125 39.5985 178.125 42.1876C178.125 44.7767 180.223 46.8751 182.812 46.8751Z" fill="#3E3E3E"/>
</svg>
