<svg width="300" height="300" viewBox="0 0 300 300" fill="none" xmlns="http://www.w3.org/2000/svg">
<path d="M297.895 178.973L253.092 122.213C252.137 121.002 250.68 120.295 249.137 120.295H225.368C222.589 120.295 220.331 122.545 220.331 125.332C220.331 128.11 222.581 130.369 225.368 130.369H246.691L284.301 178.018H15.4058L53.0159 130.369H74.3394C77.1177 130.369 79.3762 128.119 79.3762 125.332C79.3762 122.554 77.1262 120.295 74.3394 120.295H50.5699C49.0273 120.295 47.57 121.002 46.6154 122.213L1.07082 179.927C0.16743 181.069 -0.139385 182.476 0.0566345 183.805V271.204C0.0566345 273.983 2.3066 276.241 5.09348 276.241H294.963C297.742 276.241 300 273.991 300 271.204V183.047C299.991 181.368 299.156 179.885 297.895 178.973ZM289.926 266.167H10.1218V188.075H289.926V266.167Z" fill="#3E3E3E"/>
<path d="M213.428 168.567H80.1945C71.4503 168.567 64.334 161.45 64.334 152.706C64.334 143.962 71.4503 136.846 80.1945 136.846C82.9728 136.846 85.2313 139.096 85.2313 141.883C85.2313 144.661 82.9814 146.92 80.1945 146.92C76.9985 146.92 74.3991 149.519 74.3991 152.715C74.3991 155.911 76.9985 158.51 80.1945 158.51H213.428C216.624 158.51 219.223 155.911 219.223 152.715C219.223 149.519 216.624 146.92 213.428 146.92C210.649 146.92 208.391 144.67 208.391 141.883C208.391 139.104 210.641 136.846 213.428 136.846C222.172 136.846 229.288 143.962 229.288 152.706C229.288 161.45 222.172 168.567 213.428 168.567Z" fill="#3E3E3E"/>
<path d="M194.968 151.718C194.115 151.718 193.255 151.496 192.462 151.044C190.05 149.655 189.224 146.579 190.613 144.167C191.03 143.442 227.379 80.3327 245.438 48.2111C209.729 58.8303 176.235 51.0747 131.338 38.4102C94.1798 27.9274 57.9248 37.0636 44.2887 41.3846L106.921 144.056C108.37 146.434 107.62 149.527 105.242 150.976C102.864 152.425 99.7706 151.675 98.3218 149.297L32.4423 41.2993C31.6753 40.038 31.4963 38.5039 31.9651 37.0977C32.4253 35.6915 33.4906 34.5665 34.8628 34.0125C36.84 33.2114 83.9613 14.5811 134.074 28.72C183.709 42.7311 216.581 50.0946 254.413 34.3364C256.381 33.5097 258.665 34.0296 260.089 35.6233C261.521 37.217 261.785 39.5352 260.753 41.4101C247.347 65.8443 199.809 148.368 199.331 149.195C198.402 150.814 196.706 151.718 194.968 151.718Z" fill="#3E3E3E"/>
<path d="M132.105 151.718C130.324 151.718 128.594 150.763 127.682 149.084L97.5975 93.7302C96.2679 91.2842 97.1713 88.2331 99.6173 86.9036C102.063 85.5741 105.114 86.4775 106.444 88.9235L136.529 144.278C137.858 146.724 136.955 149.775 134.509 151.104C133.742 151.522 132.915 151.718 132.105 151.718Z" fill="#3E3E3E"/>
<path d="M163.988 151.718C163.153 151.718 162.309 151.513 161.534 151.07C159.113 149.706 158.244 146.647 159.608 144.218L191.499 87.3639C192.863 84.935 195.931 84.0742 198.351 85.4378C200.772 86.8014 201.641 89.861 200.277 92.2899L168.386 149.144C167.457 150.797 165.744 151.718 163.988 151.718Z" fill="#3E3E3E"/>
</svg>
