<svg width="300" height="300" viewBox="0 0 300 300" fill="none" xmlns="http://www.w3.org/2000/svg">
<g clip-path="url(#clip0_39_25)">
<path fill-rule="evenodd" clip-rule="evenodd" d="M250.15 225V250H0.149902V225H250.15ZM299.812 61.025C301.737 77.8875 288.762 93.7125 275.725 104.662C264.762 113.85 162.587 180.9 157.725 183.5C135.775 195.2 116.075 199.825 99.6499 200C82.6499 200.175 69.1624 195.575 60.3499 189.1L0.549902 139.387L47.3249 109.725L99.8624 127.787L112.162 120.562L49.9999 75L95.9749 48.45L195.875 67.7625C205.175 62.2 214.4 56.5125 223.687 50.9125C236.8 43.125 249.387 37.725 266.025 37.725C282.537 37.725 297.925 44.225 299.812 61.025V61.025ZM245.55 67.425C240.312 69.825 205.812 90.95 200.362 94.225L100.237 74.85L95.0124 77.8625L161.112 119.2L102.575 155.15L49.8999 137.05L41.2749 141.987C52.7374 151.1 63.6124 161.012 75.6624 169.312C94.0624 181.337 129.962 172.062 146.725 161.025C157.975 153.625 241.112 99.0125 252.175 91.25C259.737 85.8625 274.637 73.575 274.975 64.35L274.987 64.3C266.937 60.7125 253.537 63.7875 245.55 67.425V67.425Z" fill="#3E3E3E"/>
</g>
<defs>
<clipPath id="clip0_39_25">
<rect width="300" height="300" fill="white"/>
</clipPath>
</defs>
</svg>
