<svg width="300" height="300" viewBox="0 0 300 300" fill="none" xmlns="http://www.w3.org/2000/svg">
<path fill-rule="evenodd" clip-rule="evenodd" d="M287.138 216.525L278.125 225.525C274.1 229.55 267.55 229.55 263.525 225.525L243.925 205.925L218.863 230.988L238.462 250.588C242.487 254.613 242.5 261.15 238.462 265.188L229.45 274.187L242.337 287.5L300 229.387L287.138 216.525V216.525ZM82.3875 84.4375L12.5 12.5H44.7625L100.213 67.15C111.638 58.5 129 48.925 142.562 49.025L237.963 144.425C242.013 148.462 248.537 148.462 252.575 144.425L260.087 136.925L277.65 154.488L169.65 262.5L152.075 244.937L159.6 237.425C163.625 233.387 163.625 226.85 159.6 222.813L64.175 127.4C64.075 113.838 73.725 95.8625 82.3875 84.4375V84.4375ZM175.3 203.087L184.088 211.888L227.087 168.875L177.7 119.488L134.7 162.5L148.962 176.762L169.825 155.875L178.5 164.538L157.625 185.425L166.638 194.425L187.5 173.55L196.175 182.212L175.3 203.087V203.087ZM21.4875 44.45C34.5625 63.95 42.95 76.15 42.95 88.0125C42.95 99.875 33.35 109.487 21.4875 109.487C9.6125 109.487 0 99.875 0 88.0125C0 76.15 8.4125 63.95 21.4875 44.45V44.45Z" fill="#3E3E3E"/>
</svg>
